<svg width="310" height="31" viewBox="0 0 310 31" fill="none" xmlns="http://www.w3.org/2000/svg">
<path d="M8.05114 22.4233V2.30966H13.1364V22.4233H8.05114ZM0.536932 14.9091V9.82386H20.6506V14.9091H0.536932ZM32.3551 29.6136V20.0795H33.9347C34.4725 19.6932 34.965 19.1477 35.4119 18.4432C35.8589 17.7311 36.2415 16.75 36.5597 15.5C36.8778 14.2424 37.1051 12.5985 37.2415 10.5682L37.9006 0.727272H53.2983V20.0795H55.8438V29.5909H51.1165V24H37.0824V29.6136H32.3551ZM39.6165 20.0795H48.571V4.78409H42.3324L41.9688 10.5682C41.8703 12.1061 41.7074 13.4697 41.4801 14.6591C41.2604 15.8485 40.9915 16.8902 40.6733 17.7841C40.3627 18.6705 40.0104 19.4356 39.6165 20.0795ZM66.6307 24.3409C64.8655 24.3409 63.339 23.9659 62.0511 23.2159C60.7708 22.4583 59.7822 21.4053 59.0852 20.0568C58.3883 18.7008 58.0398 17.1288 58.0398 15.3409C58.0398 13.5379 58.3883 11.9621 59.0852 10.6136C59.7822 9.25758 60.7708 8.20454 62.0511 7.45454C63.339 6.69697 64.8655 6.31818 66.6307 6.31818C68.3958 6.31818 69.9186 6.69697 71.1989 7.45454C72.4867 8.20454 73.4792 9.25758 74.1761 10.6136C74.8731 11.9621 75.2216 13.5379 75.2216 15.3409C75.2216 17.1288 74.8731 18.7008 74.1761 20.0568C73.4792 21.4053 72.4867 22.4583 71.1989 23.2159C69.9186 23.9659 68.3958 24.3409 66.6307 24.3409ZM66.6534 20.5909C67.4564 20.5909 68.1269 20.3636 68.6648 19.9091C69.2027 19.447 69.608 18.8182 69.8807 18.0227C70.161 17.2273 70.3011 16.322 70.3011 15.3068C70.3011 14.2917 70.161 13.3864 69.8807 12.5909C69.608 11.7955 69.2027 11.1667 68.6648 10.7045C68.1269 10.2424 67.4564 10.0114 66.6534 10.0114C65.8428 10.0114 65.161 10.2424 64.608 10.7045C64.0625 11.1667 63.6496 11.7955 63.3693 12.5909C63.0966 13.3864 62.9602 14.2917 62.9602 15.3068C62.9602 16.322 63.0966 17.2273 63.3693 18.0227C63.6496 18.8182 64.0625 19.447 64.608 19.9091C65.161 20.3636 65.8428 20.5909 66.6534 20.5909ZM92.8807 0.136362L94.358 3.29545C93.8655 3.70454 93.3201 4.00757 92.7216 4.20454C92.1231 4.39394 91.4072 4.51894 90.5739 4.57954C89.7481 4.64015 88.7405 4.68182 87.5511 4.70454C86.2027 4.7197 85.1042 4.93561 84.2557 5.35227C83.4072 5.76894 82.7633 6.42424 82.3239 7.31818C81.8845 8.20455 81.5966 9.36364 81.4602 10.7955H81.6307C82.1534 9.72727 82.8883 8.90151 83.8352 8.31818C84.7898 7.73485 85.9678 7.44318 87.3693 7.44318C88.8542 7.44318 90.1534 7.76894 91.267 8.42045C92.3883 9.07197 93.2595 10.0076 93.8807 11.2273C94.5019 12.447 94.8125 13.9091 94.8125 15.6136C94.8125 17.3864 94.464 18.928 93.767 20.2386C93.0777 21.5417 92.0966 22.553 90.8239 23.2727C89.5511 23.9848 88.036 24.3409 86.2784 24.3409C84.5133 24.3409 82.9905 23.9697 81.7102 23.2273C80.4375 22.4848 79.4527 21.3902 78.7557 19.9432C78.0663 18.4962 77.7216 16.7159 77.7216 14.6023V13.1705C77.7216 8.96591 78.5398 5.84848 80.1761 3.81818C81.8125 1.78788 84.2178 0.757575 87.392 0.727272C88.2557 0.71212 89.036 0.708332 89.733 0.715908C90.4299 0.723484 91.0398 0.689393 91.5625 0.613636C92.0928 0.537879 92.5322 0.378787 92.8807 0.136362ZM86.3011 20.5909C87.0436 20.5909 87.6799 20.3977 88.2102 20.0114C88.7481 19.625 89.161 19.072 89.4489 18.3523C89.7443 17.6326 89.892 16.7727 89.892 15.7727C89.892 14.7803 89.7443 13.9394 89.4489 13.25C89.161 12.553 88.7481 12.0227 88.2102 11.6591C87.6723 11.2955 87.0284 11.1136 86.2784 11.1136C85.7178 11.1136 85.214 11.2159 84.767 11.4205C84.3201 11.625 83.9375 11.928 83.6193 12.3295C83.3087 12.7235 83.0663 13.2121 82.892 13.7955C82.7254 14.3712 82.642 15.0303 82.642 15.7727C82.642 17.2652 82.964 18.4432 83.608 19.3068C84.2595 20.1629 85.1572 20.5909 86.3011 20.5909ZM103.003 24.3295C101.889 24.3295 100.897 24.1364 100.026 23.75C99.1544 23.3561 98.465 22.7765 97.9574 22.0114C97.4574 21.2386 97.2074 20.2765 97.2074 19.125C97.2074 18.1553 97.3854 17.3409 97.7415 16.6818C98.0975 16.0227 98.5824 15.4924 99.196 15.0909C99.8097 14.6894 100.507 14.3864 101.287 14.1818C102.075 13.9773 102.901 13.8333 103.764 13.75C104.779 13.6439 105.598 13.5455 106.219 13.4545C106.84 13.3561 107.291 13.2121 107.571 13.0227C107.851 12.8333 107.991 12.553 107.991 12.1818V12.1136C107.991 11.3939 107.764 10.8371 107.31 10.4432C106.863 10.0492 106.226 9.85227 105.401 9.85227C104.529 9.85227 103.836 10.0455 103.321 10.4318C102.806 10.8106 102.465 11.2879 102.298 11.8636L97.821 11.5C98.0483 10.4394 98.4953 9.52273 99.1619 8.75C99.8286 7.9697 100.688 7.37121 101.741 6.95454C102.802 6.5303 104.029 6.31818 105.423 6.31818C106.393 6.31818 107.321 6.43182 108.207 6.65909C109.101 6.88636 109.893 7.23864 110.582 7.71591C111.279 8.19318 111.829 8.80682 112.23 9.55682C112.632 10.2992 112.832 11.1894 112.832 12.2273V24H108.241V21.5795H108.105C107.825 22.125 107.45 22.6061 106.98 23.0227C106.51 23.4318 105.946 23.7538 105.287 23.9886C104.628 24.2159 103.866 24.3295 103.003 24.3295ZM104.389 20.9886C105.101 20.9886 105.73 20.8485 106.276 20.5682C106.821 20.2803 107.249 19.8939 107.56 19.4091C107.87 18.9242 108.026 18.375 108.026 17.7614V15.9091C107.874 16.0076 107.666 16.0985 107.401 16.1818C107.143 16.2576 106.851 16.3295 106.526 16.3977C106.2 16.4583 105.874 16.5152 105.548 16.5682C105.223 16.6136 104.927 16.6553 104.662 16.6932C104.094 16.7765 103.598 16.9091 103.173 17.0909C102.749 17.2727 102.42 17.5189 102.185 17.8295C101.95 18.1326 101.832 18.5114 101.832 18.9659C101.832 19.625 102.071 20.1288 102.548 20.4773C103.033 20.8182 103.647 20.9886 104.389 20.9886ZM116.588 24V6.54545H124.031C126.183 6.54545 127.884 6.95454 129.134 7.77273C130.384 8.59091 131.009 9.75379 131.009 11.2614C131.009 12.2083 130.656 12.9962 129.952 13.625C129.247 14.2538 128.27 14.678 127.02 14.8977C128.065 14.9735 128.955 15.2121 129.69 15.6136C130.433 16.0076 130.997 16.5189 131.384 17.1477C131.777 17.7765 131.974 18.4735 131.974 19.2386C131.974 20.2311 131.709 21.0833 131.179 21.7955C130.656 22.5076 129.887 23.053 128.872 23.4318C127.865 23.8106 126.634 24 125.179 24H116.588ZM121.099 20.375H125.179C125.853 20.375 126.38 20.2159 126.759 19.8977C127.145 19.572 127.338 19.1288 127.338 18.5682C127.338 17.947 127.145 17.4583 126.759 17.1023C126.38 16.7462 125.853 16.5682 125.179 16.5682H121.099V20.375ZM121.099 13.7273H124.134C124.618 13.7273 125.031 13.6591 125.372 13.5227C125.721 13.3788 125.986 13.1742 126.168 12.9091C126.357 12.6439 126.452 12.3295 126.452 11.9659C126.452 11.428 126.236 11.0076 125.804 10.7045C125.372 10.4015 124.781 10.25 124.031 10.25H121.099V13.7273ZM139.651 17.6136L145.935 6.54545H150.707V24H146.094V12.8977L139.832 24H135.026V6.54545H139.651V17.6136ZM152.835 10.3523V6.54545H168.653V10.3523H163.028V24H158.415V10.3523H152.835ZM174.622 11.9091H179.838C182.149 11.9091 183.952 12.4621 185.247 13.5682C186.543 14.6667 187.19 16.1364 187.19 17.9773C187.19 19.1742 186.899 20.2273 186.315 21.1364C185.732 22.0379 184.891 22.7424 183.793 23.25C182.694 23.75 181.376 24 179.838 24H171.588V6.54545H176.213V20.1932H179.838C180.649 20.1932 181.315 19.9886 181.838 19.5795C182.361 19.1705 182.626 18.6477 182.634 18.0114C182.626 17.3371 182.361 16.7879 181.838 16.3636C181.315 15.9318 180.649 15.7159 179.838 15.7159H174.622V11.9091ZM197.807 24V6.54545H213.068V24H208.443V10.3523H202.375V24H197.807ZM216.932 30.5455V6.54545H221.705V9.47727H221.92C222.133 9.00758 222.439 8.5303 222.841 8.04545C223.25 7.55303 223.78 7.14394 224.432 6.81818C225.091 6.48485 225.909 6.31818 226.886 6.31818C228.159 6.31818 229.333 6.65152 230.409 7.31818C231.485 7.97727 232.345 8.97348 232.989 10.3068C233.633 11.6326 233.955 13.2955 233.955 15.2955C233.955 17.2424 233.64 18.8864 233.011 20.2273C232.39 21.5606 231.542 22.572 230.466 23.2614C229.398 23.9432 228.201 24.2841 226.875 24.2841C225.936 24.2841 225.136 24.1288 224.477 23.8182C223.826 23.5076 223.292 23.1174 222.875 22.6477C222.458 22.1705 222.14 21.6894 221.92 21.2045H221.773V30.5455H216.932ZM221.67 15.2727C221.67 16.3106 221.814 17.2159 222.102 17.9886C222.39 18.7614 222.807 19.3636 223.352 19.7955C223.898 20.2197 224.561 20.4318 225.341 20.4318C226.129 20.4318 226.795 20.2159 227.341 19.7841C227.886 19.3447 228.299 18.7386 228.58 17.9659C228.867 17.1856 229.011 16.2879 229.011 15.2727C229.011 14.2652 228.871 13.3788 228.591 12.6136C228.311 11.8485 227.898 11.25 227.352 10.8182C226.807 10.3864 226.136 10.1705 225.341 10.1705C224.553 10.1705 223.886 10.3788 223.341 10.7955C222.803 11.2121 222.39 11.803 222.102 12.5682C221.814 13.3333 221.67 14.2348 221.67 15.2727ZM245.068 24.3409C243.303 24.3409 241.777 23.9659 240.489 23.2159C239.208 22.4583 238.22 21.4053 237.523 20.0568C236.826 18.7008 236.477 17.1288 236.477 15.3409C236.477 13.5379 236.826 11.9621 237.523 10.6136C238.22 9.25758 239.208 8.20454 240.489 7.45454C241.777 6.69697 243.303 6.31818 245.068 6.31818C246.833 6.31818 248.356 6.69697 249.636 7.45454C250.924 8.20454 251.917 9.25758 252.614 10.6136C253.311 11.9621 253.659 13.5379 253.659 15.3409C253.659 17.1288 253.311 18.7008 252.614 20.0568C251.917 21.4053 250.924 22.4583 249.636 23.2159C248.356 23.9659 246.833 24.3409 245.068 24.3409ZM245.091 20.5909C245.894 20.5909 246.564 20.3636 247.102 19.9091C247.64 19.447 248.045 18.8182 248.318 18.0227C248.598 17.2273 248.739 16.322 248.739 15.3068C248.739 14.2917 248.598 13.3864 248.318 12.5909C248.045 11.7955 247.64 11.1667 247.102 10.7045C246.564 10.2424 245.894 10.0114 245.091 10.0114C244.28 10.0114 243.598 10.2424 243.045 10.7045C242.5 11.1667 242.087 11.7955 241.807 12.5909C241.534 13.3864 241.398 14.2917 241.398 15.3068C241.398 16.322 241.534 17.2273 241.807 18.0227C242.087 18.8182 242.5 19.447 243.045 19.9091C243.598 20.3636 244.28 20.5909 245.091 20.5909ZM264.761 24.3409C262.966 24.3409 261.42 23.9773 260.125 23.25C258.837 22.5152 257.845 21.4773 257.148 20.1364C256.451 18.7879 256.102 17.1932 256.102 15.3523C256.102 13.5568 256.451 11.9811 257.148 10.625C257.845 9.26894 258.826 8.21212 260.091 7.45454C261.364 6.69697 262.856 6.31818 264.568 6.31818C265.72 6.31818 266.792 6.50379 267.784 6.875C268.784 7.23864 269.655 7.78788 270.398 8.52273C271.148 9.25758 271.731 10.1818 272.148 11.2955C272.564 12.4015 272.773 13.697 272.773 15.1818V16.5114H258.034V13.5114H268.216C268.216 12.8144 268.064 12.197 267.761 11.6591C267.458 11.1212 267.038 10.7008 266.5 10.3977C265.97 10.0871 265.352 9.93182 264.648 9.93182C263.913 9.93182 263.261 10.1023 262.693 10.4432C262.133 10.7765 261.693 11.2273 261.375 11.7955C261.057 12.3561 260.894 12.9811 260.886 13.6705V16.5227C260.886 17.3864 261.045 18.1326 261.364 18.7614C261.689 19.3902 262.148 19.875 262.739 20.2159C263.33 20.5568 264.03 20.7273 264.841 20.7273C265.379 20.7273 265.871 20.6515 266.318 20.5C266.765 20.3485 267.148 20.1212 267.466 19.8182C267.784 19.5152 268.027 19.1439 268.193 18.7045L272.67 19C272.443 20.0758 271.977 21.0152 271.273 21.8182C270.576 22.6136 269.674 23.2348 268.568 23.6818C267.47 24.1212 266.201 24.3409 264.761 24.3409ZM275.932 24V6.54545H280.773V13.3182H282.136L286.886 6.54545H292.568L286.398 15.2045L292.636 24H286.886L282.58 17.8068H280.773V24H275.932ZM293.773 10.3523V6.54545H309.591V10.3523H303.966V24H299.352V10.3523H293.773Z" fill="white"/>
</svg>
