<svg width="26" height="29" viewBox="0 0 26 29" fill="none" xmlns="http://www.w3.org/2000/svg">
<path d="M2 7H4.5H24.5" stroke="#B530F4" stroke-width="3" stroke-linecap="round" stroke-linejoin="round"/>
<path d="M22 7V24.5C22 25.163 21.7366 25.7989 21.2678 26.2678C20.7989 26.7366 20.163 27 19.5 27H7C6.33696 27 5.70107 26.7366 5.23223 26.2678C4.76339 25.7989 4.5 25.163 4.5 24.5V7M8.25 7V4.5C8.25 3.83696 8.51339 3.20107 8.98223 2.73223C9.45107 2.26339 10.087 2 10.75 2H15.75C16.413 2 17.0489 2.26339 17.5178 2.73223C17.9866 3.20107 18.25 3.83696 18.25 4.5V7" stroke="#B530F4" stroke-width="3" stroke-linecap="round" stroke-linejoin="round"/>
<path d="M10.75 13.25V20.75" stroke="#B530F4" stroke-width="3" stroke-linecap="round" stroke-linejoin="round"/>
<path d="M15.75 13.25V20.75" stroke="#B530F4" stroke-width="3" stroke-linecap="round" stroke-linejoin="round"/>
</svg>
