<svg width="29" height="29" viewBox="0 0 29 29" fill="none" xmlns="http://www.w3.org/2000/svg">
<path d="M13.25 4.65161H4.5C3.83696 4.65161 3.20107 4.915 2.73223 5.38384C2.26339 5.85269 2 6.48857 2 7.15161V24.6516C2 25.3147 2.26339 25.9505 2.73223 26.4194C3.20107 26.8882 3.83696 27.1516 4.5 27.1516H22C22.663 27.1516 23.2989 26.8882 23.7678 26.4194C24.2366 25.9505 24.5 25.3147 24.5 24.6516V15.9016" stroke="#CCCCCC" stroke-width="3" stroke-linecap="round" stroke-linejoin="round"/>
<path d="M22.625 2.77665C23.1223 2.27937 23.7967 2 24.5 2C25.2033 2 25.8777 2.27937 26.375 2.77665C26.8723 3.27393 27.1517 3.94839 27.1517 4.65165C27.1517 5.35491 26.8723 6.02937 26.375 6.52665L14.5 18.4017L9.5 19.6517L10.75 14.6517L22.625 2.77665Z" stroke="#CCCCCC" stroke-width="3" stroke-linecap="round" stroke-linejoin="round"/>
</svg>
